<svg width="12" height="10" viewBox="0 0 12 10" fill="none" xmlns="http://www.w3.org/2000/svg">
<mask id="path-1-inside-1_4_159" fill="white">
<path d="M0.52667 3.35366C1.25645 1.59756 3.11129 0.719512 3.94749 0.5L5.99999 6.42683L8.05251 0.5C8.88871 0.719512 10.7436 1.59756 11.4733 3.35366C12.3855 5.54878 11.9294 7.30488 11.4733 8.18293C11.1084 8.88537 10.7131 9.35366 10.5611 9.5H7.5964L7.36834 8.40244C8.05251 8.03658 9.46645 7.04146 9.64889 5.9878C9.87695 4.67073 9.42084 3.13415 8.96473 2.47561L6.45612 9.5H5.99999H5.54388L3.03527 2.47561C2.57916 3.13415 2.12305 4.67073 2.35111 5.9878C2.53355 7.04146 3.94749 8.03658 4.63166 8.40244L4.4036 9.5H1.43889C1.28685 9.35366 0.891558 8.88537 0.52667 8.18293C0.0705604 7.30488 -0.385549 5.54878 0.52667 3.35366Z"/>
</mask>
<path d="M3.94749 0.5L15.2868 -3.42686L11.65 -13.9286L0.900596 -11.1067L3.94749 0.5ZM0.52667 3.35366L-10.5546 -1.25134V-1.25134L0.52667 3.35366ZM0.52667 8.18293L11.1756 2.65124L11.1756 2.65123L0.52667 8.18293ZM1.43889 9.5L-6.88294 18.1456L-3.39807 21.5H1.43889V9.5ZM4.4036 9.5V21.5H14.1665L16.1527 11.9413L4.4036 9.5ZM4.63166 8.40244L16.3807 10.8437L18.2071 2.05386L10.2903 -2.17958L4.63166 8.40244ZM2.35111 5.9878L14.1752 3.94044V3.94044L2.35111 5.9878ZM3.03527 2.47561L14.3362 -1.56028L6.47649 -23.5685L-6.82963 -4.35693L3.03527 2.47561ZM5.54388 9.5L-5.75708 13.5359L-2.91287 21.5H5.54388V9.5ZM5.99999 6.42683L-5.33931 10.3537L5.99993 43.0971L17.3393 10.3537L5.99999 6.42683ZM8.05251 0.5L11.0994 -11.1067L0.350043 -13.9286L-3.28678 -3.4269L8.05251 0.5ZM11.4733 3.35366L22.5546 -1.25134L22.5546 -1.25134L11.4733 3.35366ZM11.4733 8.18293L0.82437 2.65123L0.824368 2.65123L11.4733 8.18293ZM10.5611 9.5V21.5H15.3981L18.8829 18.1456L10.5611 9.5ZM7.5964 9.5L-4.15265 11.9413L-2.16651 21.5H7.5964V9.5ZM7.36834 8.40244L1.70965 -2.17958L-6.20709 2.05386L-4.38071 10.8437L7.36834 8.40244ZM9.64889 5.9878L21.4729 8.03518V8.03517L9.64889 5.9878ZM8.96473 2.47561L18.8296 -4.35694L5.52351 -23.5685L-2.33623 -1.56028L8.96473 2.47561ZM6.45612 9.5V21.5H14.9129L17.7571 13.5359L6.45612 9.5ZM0.900596 -11.1067C-0.886039 -10.6377 -2.87792 -9.75813 -4.73257 -8.44626C-6.62921 -7.10468 -9.07518 -4.81128 -10.5546 -1.25134L11.6079 7.95866C10.8583 9.7625 9.70464 10.7388 9.12692 11.1475C8.59118 11.5264 7.94483 11.8572 6.99439 12.1067L0.900596 -11.1067ZM-10.5546 -1.25134C-13.0031 4.64061 -11.992 10.1152 -10.1223 13.7146L11.1756 2.65123C12.1332 4.49455 12.232 6.45695 11.6079 7.95866L-10.5546 -1.25134ZM-10.1223 13.7146C-9.23057 15.4313 -8.08451 16.9891 -6.88294 18.1456L9.76072 0.854358C10.0956 1.17668 10.3211 1.43514 10.4267 1.55937C10.5574 1.71309 10.6613 1.84695 10.744 1.95984C10.9065 2.1817 11.0491 2.40767 11.1756 2.65124L-10.1223 13.7146ZM1.43889 21.5H4.4036V-2.5H1.43889V21.5ZM16.1527 11.9413L16.3807 10.8437L-7.1174 5.96118L-7.34545 7.05875L16.1527 11.9413ZM10.2903 -2.17958C10.696 -1.96264 11.0395 -1.7366 11.4419 -1.36524C11.665 -1.1593 12.1144 -0.716831 12.596 -0.0120481C13.0552 0.659905 13.8394 2.00128 14.1752 3.94044L-9.47295 8.03517C-8.68406 12.5912 -5.79872 15.3823 -4.83543 16.2713C-3.50943 17.4951 -2.1169 18.4017 -1.02704 18.9845L10.2903 -2.17958ZM14.1752 3.94044C14.4009 5.24396 14.2433 6.17916 14.1418 6.62839C14.0788 6.90716 13.9853 7.22608 13.839 7.59014C13.714 7.90134 13.4357 8.53493 12.9002 9.30815L-6.82963 -4.35693C-8.20618 -2.36946 -8.91108 -0.24166 -9.26855 1.34112C-9.65508 3.05254 -9.92671 5.41458 -9.47295 8.03517L14.1752 3.94044ZM-8.26569 6.5115L-5.75708 13.5359L16.8448 5.46411L14.3362 -1.56028L-8.26569 6.5115ZM5.54388 21.5H5.99999V-2.5H5.54388V21.5ZM17.3393 2.49997L15.2868 -3.42686L-7.39181 4.42686L-5.33931 10.3537L17.3393 2.49997ZM5.00561 12.1067C4.05517 11.8572 3.40882 11.5264 2.87308 11.1475C2.29536 10.7388 1.1417 9.7625 0.392086 7.95866L22.5546 -1.25134C21.0752 -4.81128 18.6292 -7.10468 16.7326 -8.44626C14.8779 -9.75813 12.886 -10.6377 11.0994 -11.1067L5.00561 12.1067ZM0.392085 7.95866C-0.231974 6.45695 -0.133157 4.49455 0.82437 2.65123L22.1223 13.7146C23.992 10.1152 25.0031 4.64061 22.5546 -1.25134L0.392085 7.95866ZM0.824368 2.65123C0.950889 2.40767 1.09351 2.1817 1.25599 1.95984C1.33867 1.84696 1.44262 1.7131 1.57329 1.55937C1.67888 1.43515 1.90442 1.17668 2.23928 0.854355L18.8829 18.1456C20.0845 16.9891 21.2306 15.4313 22.1223 13.7146L0.824368 2.65123ZM10.5611 -2.5H7.5964V21.5H10.5611V-2.5ZM19.3455 7.05874L19.1174 5.96118L-4.38071 10.8437L-4.15265 11.9413L19.3455 7.05874ZM13.027 18.9845C14.1169 18.4017 15.5094 17.4951 16.8354 16.2713C17.7987 15.3823 20.6841 12.5912 21.4729 8.03518L-2.17516 3.94043C-1.83939 2.00128 -1.05515 0.659903 -0.595992 -0.0120496C-0.114399 -0.716832 0.334969 -1.1593 0.558102 -1.36524C0.960475 -1.7366 1.30395 -1.96264 1.70965 -2.17958L13.027 18.9845ZM21.4729 8.03517C21.9267 5.41458 21.6551 3.05254 21.2686 1.34112C20.9111 -0.24166 20.2062 -2.36946 18.8296 -4.35694L-0.900174 9.30816C-1.43572 8.53494 -1.71399 7.90135 -1.839 7.59014C-1.98525 7.22608 -2.07885 6.90716 -2.14181 6.62839C-2.24326 6.17916 -2.40087 5.24396 -2.17516 3.94044L21.4729 8.03517ZM-2.33623 -1.56028L-4.84483 5.46411L17.7571 13.5359L20.2657 6.5115L-2.33623 -1.56028ZM6.45612 -2.5H5.99999V21.5H6.45612V-2.5ZM17.3393 10.3537L19.3918 4.4269L-3.28678 -3.4269L-5.3393 2.49993L17.3393 10.3537Z" fill="#367BC6" mask="url(#path-1-inside-1_4_159)"/>
</svg>
