<svg width="168" height="40" viewBox="0 0 168 40" fill="none" xmlns="http://www.w3.org/2000/svg">
<path d="M0 29.6131C0 28.8321 0.202562 28.2203 0.606983 27.7782C1.01105 27.3365 1.53238 27.1157 2.172 27.1157C2.59118 27.1157 2.96786 27.22 3.30454 27.4272C3.64015 27.6345 3.89677 27.9241 4.07301 28.2958C4.24924 28.6665 4.33806 29.0878 4.33806 29.5585C4.33806 30.0356 4.24502 30.4631 4.05931 30.8392C3.87359 31.2167 3.61066 31.5017 3.27083 31.6947C2.92996 31.8891 2.56273 31.9853 2.16886 31.9853C1.74162 31.9853 1.36036 31.8781 1.0237 31.664C0.688078 31.4502 0.432858 31.1585 0.259785 30.7877C0.0863604 30.4182 0 30.0267 0 29.6131ZM0.620675 29.6241C0.620675 30.191 0.767418 30.6375 1.06056 30.9632C1.35404 31.289 1.72265 31.4525 2.16569 31.4525C2.6175 31.4525 2.98787 31.288 3.28031 30.9588C3.57169 30.6298 3.71738 30.1625 3.71738 29.5573C3.71738 29.1742 3.65489 28.8401 3.53061 28.5548C3.40599 28.2696 3.22343 28.0481 2.98367 27.8913C2.74319 27.7345 2.47392 27.6552 2.17516 27.6552C1.75109 27.6552 1.38563 27.8067 1.07986 28.1095C0.773737 28.4122 0.620675 28.9167 0.620675 29.6241ZM6.7874 27.1948H10.3465V31.9066H9.74476V27.7476H7.38911V31.9066H6.7874V27.1948ZM13.0173 31.9066V27.1948H16.2917V27.7476H13.619V29.1953H16.1207V29.7481H13.619V31.3536H16.399V31.9066H13.0173ZM18.9004 31.9066V27.1948H20.6122C20.913 27.1948 21.1433 27.2102 21.3028 27.2397C21.5252 27.2781 21.7121 27.3517 21.863 27.4591C22.0139 27.5677 22.1354 27.7191 22.227 27.9132C22.319 28.1072 22.3643 28.321 22.3643 28.5548C22.3643 28.954 22.2418 29.2928 21.996 29.5693C21.751 29.8466 21.3069 29.9848 20.6652 29.9848H19.5017V31.9066H18.9004ZM19.5017 29.4322H20.6736C21.0619 29.4322 21.3365 29.3578 21.5 29.2075C21.6625 29.0572 21.7436 28.8467 21.7436 28.5735C21.7436 28.3772 21.6963 28.2083 21.6001 28.0678C21.5042 27.9273 21.3775 27.8345 21.2212 27.7892C21.1197 27.7618 20.933 27.7476 20.662 27.7476H19.5017V29.4322ZM23.8755 31.9066L25.6148 27.1948H26.2744L28.1207 31.9066H27.4378L26.913 30.4785H25.0036L24.5118 31.9066H23.8755ZM25.1801 29.9717H26.7251L26.2522 28.6653C26.1098 28.2685 26.0023 27.9406 25.9272 27.6818C25.8651 27.9887 25.7815 28.2903 25.6773 28.5888L25.1801 29.9717ZM30.9256 31.9066V27.7476H29.4312V27.1948H33.0218V27.7476H31.5273V31.9066H30.9256ZM34.8452 29.6131C34.8452 28.8321 35.0481 28.2203 35.4523 27.7782C35.8565 27.3365 36.3779 27.1157 37.0175 27.1157C37.4363 27.1157 37.8134 27.22 38.1501 27.4272C38.4857 27.6345 38.7423 27.9241 38.9185 28.2958C39.0948 28.6665 39.1833 29.0878 39.1833 29.5585C39.1833 30.0356 39.0905 30.4631 38.9045 30.8392C38.7188 31.2167 38.4561 31.5017 38.1164 31.6947C37.7755 31.8891 37.4079 31.9853 37.0144 31.9853C36.5868 31.9853 36.2059 31.8781 35.8692 31.664C35.5337 31.4502 35.278 31.1585 35.105 30.7877C34.9319 30.4182 34.8452 30.0267 34.8452 29.6131ZM35.4659 29.6241C35.4659 30.191 35.6126 30.6375 35.9061 30.9632C36.1996 31.289 36.5678 31.4525 37.0112 31.4525C37.4631 31.4525 37.8335 31.288 38.1259 30.9588C38.4169 30.6298 38.5626 30.1625 38.5626 29.5573C38.5626 29.1742 38.5004 28.8401 38.3758 28.5548C38.2512 28.2696 38.0687 28.0481 37.8292 27.8913C37.5883 27.7345 37.3195 27.6552 37.0207 27.6552C36.5963 27.6552 36.2311 27.8067 35.925 28.1095C35.619 28.4122 35.4659 28.9167 35.4659 29.6241ZM41.6263 31.9066V27.1948H43.3384C43.6392 27.1948 43.8692 27.2102 44.0287 27.2397C44.2511 27.2781 44.4382 27.3517 44.5893 27.4591C44.7402 27.5677 44.8613 27.7191 44.9533 27.9132C45.0449 28.1072 45.0905 28.321 45.0905 28.5548C45.0905 28.954 44.968 29.2928 44.722 29.5693C44.4772 29.8466 44.0328 29.9848 43.3911 29.9848H42.228V31.9066H41.6263ZM42.228 29.4322H43.3995C43.7881 29.4322 44.0624 29.3578 44.2259 29.2075C44.3884 29.0572 44.4698 28.8467 44.4698 28.5735C44.4698 28.3772 44.4225 28.2083 44.3263 28.0678C44.23 27.9273 44.1038 27.8345 43.9475 27.7892C43.846 27.7618 43.6593 27.7476 43.3879 27.7476H42.228V29.4322ZM50.9782 31.9066V27.1948H51.5799V29.136H53.9229V27.1948H54.5246V31.9066H53.9229V29.689H51.5799V31.9066H50.9782ZM57.2105 31.9066V27.1948H60.4846V27.7476H57.8119V29.1953H60.3135V29.7481H57.8119V31.3536H60.5924V31.9066H57.2105ZM63.5051 27.1948H66.2662V31.3536H66.6713V33.0053H66.1394V31.9066H63.1375V33.0053H62.6057V31.3536H62.9539C63.3211 30.7812 63.5051 29.6241 63.5051 27.8837V27.1948ZM65.6645 27.7476H64.0811V27.9886C64.0811 28.3903 64.0464 28.9397 63.9769 29.6361C63.9081 30.3325 63.7708 30.9052 63.5682 31.3536H65.6645V27.7476ZM69.028 31.9066V27.1948H70.7292C71.0754 27.1948 71.353 27.242 71.5629 27.3375C71.7722 27.4327 71.9358 27.5797 72.0541 27.7782C72.173 27.9756 72.2324 28.1831 72.2324 28.4002C72.2324 28.6008 72.1794 28.7905 72.0752 28.9682C71.9705 29.1458 71.8122 29.2896 71.6002 29.3993C71.8744 29.4825 72.0856 29.6252 72.2324 29.8268C72.3803 30.028 72.4539 30.2657 72.4539 30.5401C72.4539 30.7616 72.4087 30.9665 72.3188 31.1562C72.2292 31.3458 72.1184 31.4918 71.9863 31.5951C71.8543 31.6972 71.6887 31.775 71.4903 31.8273C71.2909 31.8803 71.047 31.9066 70.7576 31.9066H69.028ZM69.6296 29.1753H70.6102C70.8759 29.1753 71.067 29.1567 71.1821 29.1206C71.3352 29.0736 71.4503 28.9945 71.5272 28.885C71.6044 28.7752 71.6434 28.6381 71.6434 28.4723C71.6434 28.3156 71.6075 28.1776 71.5345 28.0591C71.4629 27.9393 71.3593 27.8573 71.2251 27.8132C71.0914 27.7695 70.8612 27.7476 70.5361 27.7476H69.6296V29.1753ZM69.6296 31.3536H70.7586C70.9531 31.3536 71.089 31.3458 71.1684 31.3306C71.3056 31.3055 71.4219 31.2627 71.5145 31.2025C71.6075 31.142 71.6833 31.0545 71.7437 30.9391C71.8038 30.8238 71.8334 30.6911 71.8334 30.5412C71.8334 30.3646 71.7901 30.2121 71.7024 30.0816C71.6159 29.951 71.4956 29.8601 71.3414 29.8072C71.1885 29.7547 70.9669 29.7283 70.6787 29.7283H69.6296V31.3536ZM74.9616 27.1948H75.5061V30.9261L77.9199 27.1948H78.514V31.9066H77.9695V28.1853L75.5619 31.9066H74.9616V27.1948ZM83.9146 27.1948V29.2611C84.2093 29.2611 84.4107 29.2042 84.5216 29.0911C84.6312 28.978 84.7705 28.7138 84.9404 28.2958C85.0651 27.9855 85.1676 27.7672 85.2498 27.64C85.3312 27.512 85.447 27.4053 85.5982 27.3186C85.7489 27.2321 85.9147 27.1883 86.0944 27.1883C86.2904 27.1883 86.4126 27.1905 86.4605 27.1948V27.7345C86.4408 27.7345 86.4024 27.7333 86.3434 27.7311C86.2766 27.729 86.2364 27.7278 86.2227 27.7278C86.0311 27.7278 85.8882 27.776 85.7968 27.8726C85.7018 27.969 85.5932 28.1755 85.4713 28.4911C85.3396 28.8332 85.2256 29.0658 85.1283 29.19C85.0324 29.3136 84.8921 29.4157 84.7084 29.4978C85.0061 29.5836 85.2929 29.8633 85.5717 30.338L86.505 31.9066H85.7625L85.003 30.6298C84.8011 30.2898 84.6312 30.0508 84.4939 29.9115C84.3569 29.7722 84.1636 29.7021 83.9146 29.7021V31.9066H83.3003V29.7021C83.103 29.7021 82.9288 29.7557 82.7768 29.8645C82.6259 29.9728 82.4498 30.2067 82.2478 30.5652L82.2099 30.6287L81.4491 31.9066H80.7039L81.6381 30.338C81.9228 29.8612 82.212 29.5813 82.5055 29.4978C82.342 29.429 82.2088 29.3366 82.1067 29.2217C82.0032 29.1065 81.8806 28.8631 81.7382 28.4921C81.6085 28.1543 81.4966 27.9427 81.4036 27.8573C81.3108 27.7705 81.1736 27.7278 80.99 27.7278L80.7481 27.7345V27.1948C80.7712 27.1905 80.8864 27.1883 81.0953 27.1883C81.294 27.1883 81.466 27.2311 81.6117 27.3153C81.757 27.4 81.8711 27.5065 81.9547 27.6333C82.0369 27.7618 82.1425 27.9821 82.2724 28.297C82.4445 28.7205 82.5849 28.9857 82.6922 29.0932C82.8012 29.201 83.0037 29.2567 83.3003 29.2611V27.1948H83.9146ZM88.7034 27.1948H89.2483V30.9261L91.6623 27.1948H92.2568V31.9066H91.7119V28.1853L89.3048 31.9066H88.7034V27.1948ZM94.9026 31.9066V27.1948H95.8016L96.8744 30.5302C96.9736 30.8403 97.0446 31.0731 97.0899 31.2277C97.1421 31.0566 97.2234 30.8042 97.3329 30.4718L98.4245 27.1948H99.2277V31.9066H98.6511V27.9646L97.3277 31.9066H96.7872L95.4783 27.8923V31.9066H94.9026ZM101.678 29.6131C101.678 28.8321 101.881 28.2203 102.285 27.7782C102.69 27.3365 103.21 27.1157 103.85 27.1157C104.269 27.1157 104.646 27.22 104.983 27.4272C105.318 27.6345 105.575 27.9241 105.751 28.2958C105.927 28.6665 106.016 29.0878 106.016 29.5585C106.016 30.0356 105.923 30.4631 105.737 30.8392C105.552 31.2167 105.289 31.5017 104.95 31.6947C104.608 31.8891 104.24 31.9853 103.847 31.9853C103.419 31.9853 103.039 31.8781 102.702 31.664C102.366 31.4502 102.11 31.1585 101.938 30.7877C101.765 30.4182 101.678 30.0267 101.678 29.6131ZM102.299 29.6241C102.299 30.191 102.446 30.6375 102.739 30.9632C103.033 31.289 103.4 31.4525 103.844 31.4525C104.296 31.4525 104.666 31.288 104.959 30.9588C105.25 30.6298 105.396 30.1625 105.396 29.5573C105.396 29.1742 105.334 28.8401 105.209 28.5548C105.085 28.2696 104.902 28.0481 104.662 27.8913C104.422 27.7345 104.152 27.6552 103.854 27.6552C103.429 27.6552 103.064 27.8067 102.758 28.1095C102.452 28.4122 102.299 28.9167 102.299 29.6241ZM111.689 30.2537L112.291 30.4117C112.165 30.9238 111.939 31.3131 111.613 31.582C111.287 31.8505 110.888 31.9853 110.416 31.9853C109.929 31.9853 109.531 31.8825 109.226 31.675C108.919 31.4688 108.687 31.1693 108.528 30.7778C108.369 30.3855 108.288 29.9652 108.288 29.5157C108.288 29.0255 108.378 28.5976 108.559 28.2323C108.739 27.8672 108.996 27.5896 109.328 27.4C109.66 27.2102 110.026 27.1157 110.426 27.1157C110.879 27.1157 111.261 27.2353 111.569 27.4753C111.878 27.7158 112.093 28.0526 112.215 28.4866L111.625 28.6315C111.521 28.2892 111.368 28.0393 111.168 27.8837C110.969 27.7267 110.718 27.6487 110.415 27.6487C110.067 27.6487 109.777 27.7355 109.543 27.9088C109.31 28.0821 109.145 28.3156 109.051 28.6073C108.956 28.9003 108.908 29.202 108.908 29.5125C108.908 29.9126 108.965 30.2625 109.077 30.561C109.188 30.8603 109.363 31.0828 109.6 31.2311C109.836 31.3791 110.091 31.4525 110.366 31.4525C110.702 31.4525 110.984 31.3513 111.217 31.1507C111.449 30.949 111.606 30.6506 111.689 30.2537ZM115.647 31.9066V27.7476H114.152V27.1948H117.743V27.7476H116.249V31.9066H115.647ZM120.047 27.1948H120.592V30.9261L123.004 27.1948H123.599V31.9066H123.054V28.1853L120.648 31.9066H120.047V27.1948Z" fill="white"/>
<path d="M9.17812 22.6201H6.79021V9.03722H2.38932V22.6201H0V6.92725H9.17812V22.6201Z" fill="white"/>
<path d="M12.1776 6.92725H20.2661V9.03722H14.5672V13.3886H19.9301V15.4984H14.5672V20.5104H20.4345V22.6204H12.1776V6.92725Z" fill="white"/>
<path d="M22.7792 6.92725H27.5158C30.3874 6.92725 31.6447 8.81726 31.6447 11.4989C31.6447 14.3118 30.0508 16.1368 27.2637 16.1368H25.1686V22.6204H22.7792V6.92725ZM25.1686 14.2473H26.8671C28.1439 14.2473 29.2549 13.5443 29.2549 11.5441C29.2549 9.85216 28.6052 8.81726 26.6988 8.81726H25.1686V14.2473Z" fill="white"/>
<path d="M33.4271 14.7736C33.4271 9.16914 34.6003 6.62109 38.3935 6.62109C42.6474 6.62109 42.8997 9.89591 42.8997 11.544V11.8289H40.5101V11.5655C40.5101 10.0925 40.1334 8.51073 38.3935 8.51073C36.5912 8.51073 35.8157 9.65439 35.8157 14.7094C35.8157 19.7632 36.5912 21.0389 38.3721 21.0389C40.3845 21.0389 40.594 18.7301 40.594 17.2567V16.9934H42.9837V17.3235C42.9837 20.1586 41.8729 22.9286 38.3721 22.9286C34.6003 22.9286 33.4271 20.3786 33.4271 14.7736Z" fill="white"/>
<path d="M54.3632 22.6201H51.9747V9.03722H47.5732V22.6201H45.1842V6.92725H54.3632V22.6201Z" fill="white"/>
<path d="M57.3526 6.92725H65.4411V9.03722H59.7419V13.3886H65.106V15.4984H59.7419V20.5104H65.6091V22.6204H57.3526V6.92725Z" fill="white"/>
<path d="M67.9589 6.92725H70.3485V13.7639H70.39L74.9162 6.92725H77.5362L73.2188 13.5443L77.9967 22.6204H75.2943L71.6688 15.5652L70.3485 17.5439V22.6204H67.9589V6.92725Z" fill="white"/>
<path d="M81.8103 9.03687H78.2462V6.92725H87.6989V9.03687H84.1996V22.6201H81.8103V9.03687Z" fill="white"/>
<path d="M98.9969 22.6201H96.607V14.6639C96.607 13.9172 96.6497 11.7859 96.6711 11.0374H96.607C96.3981 11.6306 96.1253 12.4007 95.707 13.5227L92.2896 22.6201H89.5874V6.92725H91.9766V14.9509C91.9766 15.6969 91.956 17.7854 91.9124 18.5103H91.9766C92.1647 17.8737 92.7088 16.3787 93.4428 14.4224L96.2938 6.92725H98.9969V22.6201Z" fill="white"/>
<path d="M101.991 6.92725H106.832C109.074 6.92725 110.856 7.9826 110.856 10.7306C110.856 12.6209 110.123 13.8073 108.655 14.2903V14.3359C110.291 14.6419 111.337 15.6758 111.337 18.3359C111.337 20.9716 109.535 22.6204 106.727 22.6204H101.991V6.92725ZM106.268 13.5443C107.713 13.5443 108.468 12.5542 108.468 11.0608C108.468 9.19261 107.399 8.81726 106.058 8.81726H104.38V13.5443H106.268ZM106.749 20.7301C108.174 20.7301 108.948 19.7852 108.948 17.9602C108.948 16.2689 108.006 15.3027 106.602 15.3027H104.38V20.7301H106.749Z" fill="white"/>
<path d="M116.602 6.92725H119.66L123.601 22.6204H121.107L120.185 18.7737H115.805L114.842 22.6204H112.348L116.602 6.92725ZM119.786 16.7742L118.067 9.03722H118.026L116.245 16.7742H119.786Z" fill="white"/>
<path d="M143.95 21.3922L161.872 14.2837L155.13 21.3192L147.121 24.7016L143.95 21.3922ZM153.272 33.1291L154.329 34.2286L151.155 37.5267L150.102 36.4331L153.272 33.1291ZM148.906 36.4331L145.474 40.0004L142.045 36.4382L145.483 32.8654L148.906 36.4331Z" fill="white"/>
<path d="M150.377 10.2635C151.37 9.23049 151.879 8.36186 151.899 7.65818C151.92 6.95448 151.657 6.31681 151.107 5.74519C150.556 5.17355 149.953 4.88755 149.298 4.88755C148.641 4.88755 147.911 5.30524 147.108 6.14099L144.726 8.61467L141.425 5.18449L143.583 2.94173C145.383 1.07287 147.202 0.0941182 149.043 0.00620253C150.884 -0.0817134 152.661 0.76498 154.375 2.54593C156.089 4.32685 156.905 6.17382 156.82 8.08681C156.735 9.99983 155.793 11.8909 153.996 13.7598C152.83 14.9691 151.609 15.8872 150.329 16.514C149.048 17.1407 147.763 17.5857 146.472 17.8499C145.182 18.1136 143.906 18.2731 142.647 18.3281C141.389 18.3829 140.203 18.4489 139.093 18.5259C137.981 18.6029 136.977 18.7568 136.078 18.9876C135.177 19.2186 134.421 19.6528 133.808 20.2903C133.595 20.5103 133.448 20.6861 133.364 20.8183L139.965 27.6786L136.792 30.9768L126.698 20.4885L129.427 17.6519C130.508 16.5304 131.628 15.7169 132.792 15.2109C133.956 14.7054 135.141 14.3646 136.347 14.1887C137.553 14.0129 138.754 13.9193 139.95 13.9083C141.145 13.8974 142.341 13.8094 143.537 13.6445C144.732 13.4796 145.901 13.1553 147.043 12.6715C148.185 12.1875 149.298 11.385 150.377 10.2635Z" fill="white"/>
<path d="M163.799 13.5217L149.506 28.4379L142.912 21.5556L139.365 25.2419L149.506 35.8137L167.347 17.2101L163.799 13.5217Z" fill="#FD5500"/>
</svg>
