<svg width="845" height="1024" viewBox="0 0 845 1024" fill="none" xmlns="http://www.w3.org/2000/svg">
<mask id="mask0_2_8" style="mask-type:luminance" maskUnits="userSpaceOnUse" x="-549" y="-290" width="1394" height="1314">
<path d="M844.26 -290H-548.144V1024H844.26V-290Z" fill="white"/>
</mask>
<g mask="url(#mask0_2_8)">
<path d="M60.2731 412.737L652.82 179.222L429.93 410.339L165.107 521.449L60.2731 412.737ZM368.477 798.293L403.448 834.411L298.497 942.755L263.682 906.829L368.477 798.293ZM224.135 906.829L110.656 1024.02L-2.70557 906.998L110.969 789.633L224.135 906.829Z" fill="white" fill-opacity="0.02"/>
<path d="M272.759 47.1576C305.617 13.2215 322.438 -15.3128 323.103 -38.429C323.807 -61.5455 315.084 -82.4927 296.894 -101.271C278.705 -120.049 258.755 -129.444 237.084 -129.444C215.374 -129.444 191.239 -115.723 164.679 -88.2686L85.9357 -7.00797L-23.2012 -119.69L48.1484 -193.364C107.646 -254.756 167.808 -286.908 228.674 -289.796C289.54 -292.684 348.294 -264.87 404.975 -206.366C461.616 -147.863 488.608 -87.1899 485.791 -24.3482C482.975 38.4942 451.837 100.617 392.418 162.008C353.888 201.736 313.519 231.896 271.195 252.485C228.831 273.074 186.349 287.692 143.672 296.368C100.996 305.033 58.8273 310.272 17.2067 312.079C-24.414 313.877 -63.6093 316.045 -100.301 318.575C-137.071 321.104 -170.282 326.159 -200.011 333.743C-229.779 341.332 -254.775 355.593 -275.038 376.535C-282.079 383.762 -286.968 389.539 -289.746 393.879L-71.4719 619.243L-176.384 727.586L-510.132 383.047L-419.888 289.864C-384.174 253.023 -347.131 226.299 -308.639 209.677C-270.148 193.072 -230.992 181.878 -191.092 176.1C-151.232 170.323 -111.528 167.247 -71.9804 166.886C-32.4721 166.529 7.07526 163.638 46.6227 158.222C86.131 152.806 124.779 142.15 162.527 126.259C200.314 110.358 237.084 83.9964 272.759 47.1576Z" fill="white" fill-opacity="0.02"/>
<path d="M716.543 154.189L243.968 644.184L25.9686 418.102L-91.3047 539.195L243.968 886.481L833.855 275.352L716.543 154.189Z" fill="white" fill-opacity="0.02"/>
</g>
</svg>
